<?xml version="1.0" standalone="no"?>
<!DOCTYPE svg PUBLIC "-//W3C//DTD SVG 20010904//EN"
 "http://www.w3.org/TR/2001/REC-SVG-20010904/DTD/svg10.dtd">
<svg version="1.0" xmlns="http://www.w3.org/2000/svg"
 width="100.000000pt" height="32.000000pt" viewBox="0 0 900.000000 286.000000"
 preserveAspectRatio="xMidYMid meet">
<metadata>
Created by potrace 1.16, written by Peter Selinger 2001-2019
</metadata>
<g transform="translate(0.000000,286.000000) scale(0.100000,-0.100000)"
fill="#000000" stroke="none">
<path d="M1325 2659 c-157 -38 -308 -148 -436 -319 -150 -199 -141 -406 23
-528 63 -46 178 -95 266 -112 34 -7 62 -17 62 -22 0 -6 -8 -22 -18 -36 -11
-15 -21 -37 -25 -49 -4 -20 -1 -23 28 -23 62 0 125 -107 111 -189 -3 -19 -10
-39 -16 -45 -8 -8 -8 -2 0 19 27 71 -35 195 -96 195 -16 0 -66 -40 -151 -117
-70 -64 -162 -143 -203 -176 -68 -53 -79 -67 -116 -145 -23 -48 -73 -137 -111
-199 -77 -123 -92 -174 -73 -258 16 -70 54 -121 122 -166 124 -79 251 -96 421
-55 244 59 443 188 613 396 95 118 147 205 186 316 30 83 32 98 33 229 0 156
-17 227 -75 315 -16 25 -30 48 -30 51 0 3 42 43 94 88 86 74 95 86 104 129 6
29 7 68 1 102 -11 71 -70 191 -111 225 -58 49 -75 36 -294 -225 -67 -80 -130
-152 -140 -161 -17 -15 -32 -15 -153 -3 -155 16 -218 32 -282 73 -84 53 -129
136 -129 238 0 100 44 164 176 254 86 58 143 74 227 65 106 -11 248 -96 277
-165 11 -27 10 -36 -9 -71 -25 -48 -26 -66 -7 -73 25 -10 64 31 102 108 37 75
52 144 40 189 -8 34 -60 92 -111 124 -36 24 -51 27 -150 29 -60 1 -128 -2
-150 -8z m117 -889 c49 -41 86 -119 94 -202 4 -38 9 -68 12 -68 3 0 28 21 55
47 l50 47 49 -54 c78 -87 92 -136 92 -320 1 -149 0 -157 -28 -215 -107 -229
-327 -383 -576 -404 -52 -4 -124 -6 -160 -4 -66 3 -182 33 -234 60 -63 33
-166 149 -152 171 3 5 39 26 81 46 78 38 172 62 204 51 25 -8 42 8 221 218
113 133 155 175 164 168 24 -20 107 26 155 86 l43 55 -4 81 c-5 96 -35 165
-93 216 -20 17 -33 36 -30 41 9 15 18 12 57 -20z"/>
<path d="M4538 2460 c-121 -21 -229 -82 -281 -157 -100 -145 -121 -349 -52
-501 32 -69 112 -152 183 -190 31 -17 134 -56 227 -87 251 -85 302 -114 341
-199 28 -61 32 -149 8 -218 -46 -135 -213 -212 -386 -179 -163 32 -270 149
-296 324 l-8 52 -39 -2 c-22 -1 -58 -5 -81 -8 l-41 -6 4 -52 c10 -123 55 -243
124 -335 135 -178 446 -235 660 -121 265 142 330 558 122 780 -61 66 -158 112
-376 183 -203 66 -261 98 -294 166 -31 61 -31 147 1 215 45 98 133 145 270
145 89 0 132 -12 193 -53 58 -39 110 -133 120 -216 l6 -54 60 7 c33 3 71 6 84
6 24 0 24 1 17 58 -27 223 -143 375 -324 426 -71 19 -182 27 -242 16z"/>
<path d="M2380 2320 l0 -121 76 3 77 3 0 115 0 115 -77 3 -76 3 0 -121z"/>
<path d="M5643 2332 l-73 -57 0 -152 0 -153 -55 0 -55 0 0 -80 0 -80 54 0 54
0 4 -452 3 -453 26 -56 c26 -55 62 -89 106 -103 29 -9 142 -9 177 0 l28 7 -7
66 c-11 113 -10 111 -67 111 -27 0 -58 4 -68 10 -36 20 -40 61 -40 471 l0 399
80 0 80 0 0 80 0 80 -80 0 -80 0 0 210 c0 116 -3 210 -7 209 -5 0 -41 -26 -80
-57z"/>
<path d="M7525 2336 l-70 -56 -5 -152 -5 -153 -57 -3 -58 -3 0 -79 0 -80 60 0
60 0 0 -435 c0 -280 4 -452 11 -486 13 -61 63 -122 114 -139 40 -13 114 -16
173 -5 38 6 43 10 39 29 -3 11 -9 51 -12 88 l-7 67 -61 3 c-52 3 -63 6 -81 31
-20 28 -21 40 -24 437 l-4 409 84 3 83 3 3 77 3 77 -83 3 -83 3 -5 208 -5 209
-70 -56z"/>
<path d="M3209 1985 c-142 -46 -239 -179 -287 -395 -26 -114 -22 -359 6 -465
63 -231 182 -358 351 -372 89 -7 160 20 224 84 26 26 47 50 47 55 0 4 5 8 12
8 16 0 3 -229 -16 -295 -36 -119 -115 -177 -240 -177 -130 0 -188 47 -222 179
-1 6 -29 17 -61 23 -32 6 -67 14 -77 17 -18 5 -19 1 -12 -61 19 -187 121 -297
301 -326 180 -29 351 54 429 207 56 112 58 141 63 851 l5 652 -76 0 -76 0 0
-67 0 -67 -49 55 c-26 30 -70 65 -96 78 -60 30 -160 37 -226 16z m186 -174
c23 -10 60 -39 83 -66 77 -88 108 -220 99 -425 -7 -150 -30 -233 -84 -304 -70
-91 -164 -117 -255 -73 -102 51 -151 147 -170 334 -21 214 20 399 107 484 71
70 141 86 220 50z"/>
<path d="M6512 1990 c-114 -24 -207 -90 -252 -180 -32 -64 -63 -171 -52 -182
7 -7 143 -31 146 -26 1 2 10 28 19 59 38 125 93 164 227 164 89 0 129 -13 178
-58 29 -27 52 -106 52 -182 l0 -61 -67 -22 c-38 -11 -129 -32 -205 -46 -155
-28 -208 -48 -267 -102 -58 -51 -89 -109 -107 -195 -24 -115 -3 -228 58 -317
39 -57 89 -88 172 -109 123 -30 242 5 365 107 49 41 61 47 65 32 2 -9 10 -41
16 -69 l12 -53 83 0 83 0 -21 63 c-19 57 -21 93 -27 497 -7 495 -9 503 -87
590 -59 65 -126 91 -253 96 -52 2 -114 -1 -138 -6z m315 -742 c-6 -128 -28
-200 -78 -261 -63 -77 -183 -120 -269 -97 -123 33 -177 190 -104 303 31 48 80
70 208 97 53 11 127 30 164 44 37 13 71 24 76 25 5 1 7 -47 3 -111z"/>
<path d="M2380 1360 l0 -611 75 3 76 3 2 608 2 607 -77 0 -78 0 0 -610z"/>
</g>
</svg>
